<?xml version="1.0" standalone="no"?>
<!DOCTYPE svg PUBLIC "-//W3C//DTD SVG 20010904//EN"
 "http://www.w3.org/TR/2001/REC-SVG-20010904/DTD/svg10.dtd">
<svg version="1.0" xmlns="http://www.w3.org/2000/svg"
 width="4096.000000pt" height="4096.000000pt" viewBox="0 0 4096.000000 4096.000000"
 preserveAspectRatio="xMidYMid meet">
<metadata>
Created by potrace 1.14, written by Peter Selinger 2001-2017
</metadata>
<g transform="translate(0.000000,4096.000000) scale(0.100000,-0.100000)"
fill="#000000" stroke="none">
<path d="M12290 22894 l0 -1307 -30 39 c-52 65 -221 233 -300 297 -271 219
-607 357 -962 396 -124 14 -401 14 -526 0 -396 -43 -751 -181 -1057 -413 -94
-70 -291 -261 -372 -358 -173 -207 -333 -487 -423 -740 l-13 -36 534 -541 534
-541 3 -47 3 -47 -561 -561 -560 -560 21 -65 c122 -373 349 -745 605 -990 342
-328 704 -511 1179 -596 143 -26 561 -26 690 -1 456 90 795 270 1132 602 l103
101 2 -295 3 -296 838 -3 837 -2 0 3635 0 3635 -840 0 -840 0 0 -1306z m-708
-2087 c246 -64 466 -181 636 -341 l82 -78 0 -817 0 -816 -81 -77 c-180 -173
-453 -311 -718 -364 -116 -23 -383 -15 -491 14 -128 34 -233 80 -326 141 -264
175 -447 464 -510 808 -22 124 -29 361 -14 491 36 313 135 530 333 733 183
188 344 272 617 323 55 10 416 -3 472 -17z"/>
<path d="M20982 20568 l3 -3633 288 -3 287 -2 0 410 c0 225 3 410 8 409 4 0
39 -41 77 -90 89 -115 281 -301 413 -403 306 -233 602 -364 977 -433 82 -15
150 -18 370 -17 292 0 402 12 619 69 829 216 1445 927 1640 1895 52 259 71
465 71 790 0 398 -31 659 -116 980 -149 560 -471 1058 -884 1370 -376 283
-810 420 -1331 420 -603 0 -1102 -198 -1523 -605 -103 -99 -285 -309 -298
-342 -3 -7 -9 -13 -14 -13 -5 0 -9 591 -9 1415 l0 1415 -290 0 -290 0 2 -3632z
m2632 1218 c183 -32 339 -85 495 -166 141 -75 243 -152 376 -285 358 -359 564
-850 616 -1465 17 -197 6 -640 -20 -800 -72 -452 -187 -748 -417 -1071 -76
-107 -276 -307 -379 -381 -278 -197 -616 -298 -995 -298 -331 0 -636 75 -936
230 -320 164 -581 382 -743 620 l-61 88 0 1299 0 1298 68 95 c169 239 473 490
780 644 238 119 386 164 697 210 66 10 433 -3 519 -18z"/>
<path d="M28420 22349 c-686 -47 -1301 -336 -1767 -830 l-52 -55 155 -194 c86
-107 159 -196 164 -198 4 -2 59 48 121 110 443 441 933 648 1534 648 313 0
532 -47 770 -167 283 -141 482 -363 574 -638 57 -172 61 -221 61 -864 l0 -584
-107 104 c-60 57 -135 125 -168 150 -308 237 -677 391 -1085 454 -139 22 -523
31 -660 16 -561 -61 -1088 -369 -1362 -797 -170 -265 -260 -645 -245 -1024 22
-518 208 -913 575 -1220 355 -298 733 -443 1187 -457 699 -22 1308 201 1767
645 l98 95 2 -304 3 -304 288 -3 288 -2 -3 1992 -3 1993 -22 111 c-30 149 -65
264 -112 375 -212 491 -700 827 -1341 923 -221 33 -423 41 -660 25z m353
-2529 c491 -76 880 -291 1157 -642 l40 -50 0 -574 0 -573 -74 -89 c-146 -175
-323 -314 -541 -422 -290 -143 -564 -203 -945 -204 -216 -1 -305 9 -470 50
-250 61 -461 178 -627 346 -182 183 -282 368 -334 621 -30 146 -30 390 1 537
55 260 163 456 352 636 234 224 528 354 871 384 136 13 425 2 570 -20z"/>
<path d="M2520 22319 c-677 -63 -1271 -330 -1729 -774 -227 -221 -376 -421
-512 -690 -109 -217 -186 -448 -233 -700 -63 -335 -64 -835 -1 -1165 97 -515
319 -945 680 -1318 419 -434 904 -696 1508 -816 224 -45 303 -51 662 -50 379
0 488 10 747 69 441 99 866 332 1179 646 85 86 212 245 207 259 -6 14 -1083
1020 -1090 1017 -4 -1 -40 -40 -81 -87 -178 -207 -397 -337 -654 -389 -141
-29 -379 -29 -528 0 -243 46 -422 140 -606 316 -152 146 -247 301 -303 495
-74 256 -74 610 -1 863 109 375 386 659 761 779 126 40 241 56 414 56 96 0
192 -6 246 -15 290 -50 536 -196 703 -418 24 -32 47 -56 52 -55 4 2 247 229
539 506 l531 503 -43 62 c-58 84 -304 329 -405 402 -383 279 -748 425 -1223
491 -135 19 -671 28 -820 13z"/>
<path d="M16975 22319 c-663 -67 -1201 -315 -1645 -759 -168 -167 -247 -262
-370 -447 -303 -455 -450 -973 -450 -1582 1 -679 189 -1247 567 -1716 101
-125 318 -338 443 -435 329 -254 704 -429 1105 -516 251 -54 461 -75 765 -75
490 0 862 60 1345 218 291 95 561 236 764 397 36 29 71 59 78 67 10 12 -56
116 -358 567 l-371 553 -46 -36 c-155 -117 -348 -214 -566 -284 -258 -82 -416
-112 -635 -118 -468 -15 -828 110 -1082 374 -46 48 -106 123 -132 165 -49 78
-112 220 -123 277 l-6 31 1872 0 1873 0 -6 343 c-6 369 -14 480 -53 712 -98
592 -331 1080 -706 1479 -397 424 -886 676 -1498 771 -124 20 -622 29 -765 14z
m790 -1378 c50 -11 116 -29 148 -40 270 -94 510 -355 577 -626 11 -44 20 -86
20 -92 0 -10 -222 -13 -1075 -13 -862 0 -1075 3 -1075 13 0 33 45 170 80 242
149 310 408 489 776 535 119 15 446 4 549 -19z"/>
<path d="M33020 22324 c-339 -39 -555 -94 -777 -200 -282 -134 -561 -397 -696
-653 -208 -393 -192 -915 38 -1262 147 -220 431 -431 760 -562 147 -59 315
-106 925 -258 575 -144 636 -163 835 -258 262 -126 410 -235 498 -369 89 -134
117 -233 117 -413 0 -264 -90 -478 -282 -670 -257 -257 -619 -379 -1123 -379
-321 0 -577 46 -840 151 -286 115 -619 343 -782 538 -32 38 -63 70 -69 70 -11
1 -344 -403 -344 -418 0 -16 247 -249 338 -319 339 -261 735 -419 1222 -489
159 -22 739 -26 890 -5 544 75 887 230 1168 527 194 205 310 427 369 705 27
130 25 479 -4 611 -56 248 -142 415 -303 583 -183 190 -411 343 -658 441 -142
56 -232 81 -877 245 -582 147 -717 191 -947 305 -293 146 -427 291 -474 515
-20 93 -13 240 15 351 81 316 370 569 771 676 135 36 221 45 448 50 334 8 561
-21 807 -102 294 -96 587 -295 750 -509 28 -36 55 -64 62 -63 6 1 81 89 166
196 l156 194 -27 35 c-36 48 -205 198 -311 277 -301 225 -661 370 -1082 436
-108 17 -190 21 -419 24 -157 2 -301 1 -320 -1z"/>
<path d="M38155 22324 c-259 -27 -522 -95 -742 -193 -624 -276 -1156 -889
-1386 -1596 -59 -180 -98 -367 -128 -615 -17 -135 -17 -561 0 -705 78 -681
316 -1210 745 -1653 434 -448 960 -696 1596 -753 191 -17 575 -6 750 20 594
91 1128 357 1522 758 l68 68 -145 184 c-79 101 -147 186 -150 189 -2 3 -46
-35 -97 -84 -340 -329 -717 -520 -1187 -600 -176 -30 -501 -42 -678 -25 -345
33 -682 154 -943 339 -111 79 -306 264 -397 377 -207 258 -356 567 -426 885
-32 141 -57 320 -57 400 l0 60 2198 2 2197 3 3 100 c4 121 -14 421 -34 565
-79 572 -287 1060 -628 1474 -359 436 -802 685 -1381 777 -102 17 -186 22
-395 24 -146 2 -283 1 -305 -1z m549 -509 c400 -53 722 -208 977 -472 349
-362 580 -860 614 -1328 3 -44 8 -101 11 -127 l5 -48 -1906 0 -1905 0 0 53 c0
72 35 293 65 408 79 307 220 597 421 864 272 362 648 582 1110 650 129 18 464
18 608 0z"/>
<path d="M5909 21773 c-118 -120 -433 -441 -700 -713 -266 -272 -678 -692
-914 -933 l-430 -438 -3 -47 -3 -47 1123 -1145 c618 -630 1128 -1145 1134
-1145 5 0 113 107 238 238 l228 238 159 -153 c88 -84 203 -193 256 -243 l96
-90 580 585 c318 322 829 838 1135 1148 l557 563 3 46 3 46 -233 236 c-129
130 -533 540 -898 911 -366 371 -774 785 -907 920 l-243 245 -132 -130 c-73
-72 -185 -181 -249 -243 l-116 -114 -228 239 c-125 131 -231 239 -234 241 -4
1 -103 -96 -222 -215z m1339 -1710 l414 -423 -308 -316 c-170 -173 -403 -412
-519 -530 l-210 -214 -480 465 c-264 256 -509 495 -545 531 l-65 65 540 534
540 535 109 -113 c60 -61 296 -302 524 -534z"/>
</g>
</svg>
